<?xml version="1.0" standalone="no"?>
<!DOCTYPE svg PUBLIC "-//W3C//DTD SVG 20010904//EN"
 "http://www.w3.org/TR/2001/REC-SVG-20010904/DTD/svg10.dtd">
<svg version="1.0" xmlns="http://www.w3.org/2000/svg"
 width="180.000000pt" height="180.000000pt" viewBox="0 0 180.000000 180.000000"
 preserveAspectRatio="xMidYMid meet">
<metadata>
Created by potrace 1.11, written by Peter Selinger 2001-2013
</metadata>
<g transform="translate(0.000000,180.000000) scale(0.100000,-0.100000)"
fill="#000000" stroke="none">
<path d="M1220 1756 c18 -82 -8 -194 -67 -284 -78 -117 -218 -215 -456 -319
-141 -61 -228 -116 -298 -188 -203 -209 -230 -464 -81 -776 25 -55 49 -99 52
-99 3 0 15 51 28 113 24 127 70 274 109 351 81 162 206 303 331 373 58 33 162
77 162 70 0 -2 -22 -18 -48 -35 -147 -95 -285 -291 -357 -507 -52 -155 -91
-424 -65 -440 7 -4 83 -9 170 -11 215 -3 374 27 510 96 397 202 481 809 192
1389 -56 113 -171 301 -183 301 -4 0 -3 -15 1 -34z"/>
<path d="M414 1650 c-30 -12 -54 -49 -54 -82 0 -57 74 -102 125 -75 31 16 44
39 45 78 0 57 -63 100 -116 79z"/>
<path d="M902 1585 c-31 -26 -36 -46 -20 -88 30 -78 148 -54 148 31 0 29 -27
71 -47 73 -5 0 -18 2 -30 5 -13 2 -33 -6 -51 -21z"/>
<path d="M701 1387 c-16 -16 -14 -34 5 -41 21 -8 34 1 34 24 0 22 -23 33 -39
17z"/>
<path d="M453 1258 c-13 -21 -12 -36 2 -48 21 -18 55 -2 55 25 0 31 -41 48
-57 23z"/>
<path d="M285 1213 c-14 -32 -14 -43 2 -58 31 -31 83 -12 83 30 0 12 -5 26
-12 33 -18 18 -65 15 -73 -5z"/>
</g>
</svg>
