<?xml version="1.0" encoding="utf-8"?>
<!-- Generator: Adobe Illustrator 21.1.0, SVG Export Plug-In . SVG Version: 6.00 Build 0)  -->
<svg version="1.1" id="Capa_1" xmlns="http://www.w3.org/2000/svg" xmlns:xlink="http://www.w3.org/1999/xlink" x="0px" y="0px"
	 viewBox="0 0 612 612"  fill="#fff" style="enable-background:new 0 0 612 612;" xml:space="preserve">
<path d="M612,306C612,137,475,0,306,0C137,0,0,137,0,306c0,169,137,306,306,306C475,612,612,475,612,306z M27.8,306
	C27.8,152.4,152.4,27.8,306,27.8S584.2,152.4,584.2,306S459.6,584.2,306,584.2S27.8,459.6,27.8,306z"/>
<g>
	<path fill="#fff" id="LinkedIn" d="M492.9,346.4v138.2h-80.1v-129c0-32.4-11.6-54.5-40.6-54.5c-22.1,0-35.3,14.9-41.1,29.3
		c-2.1,5.2-2.7,12.3-2.7,19.5v134.6h-80.2c0,0,1.1-218.4,0-241.1h80.2v34.2c-0.2,0.3-0.4,0.5-0.5,0.8h0.5v-0.8
		c10.6-16.4,29.7-39.8,72.2-39.8C453.4,237.9,492.9,272.4,492.9,346.4z M164.4,127.4c-27.4,0-45.4,18-45.4,41.6
		c0,23.1,17.4,41.7,44.3,41.7h0.5c28,0,45.3-18.5,45.3-41.7C208.7,145.4,191.8,127.4,164.4,127.4z M123.8,484.6H204V243.6h-80.1
		V484.6z"/>
</g>
</svg>
