<?xml version="1.0" standalone="no"?>
<!DOCTYPE svg PUBLIC "-//W3C//DTD SVG 20010904//EN"
 "http://www.w3.org/TR/2001/REC-SVG-20010904/DTD/svg10.dtd">
<svg version="1.0" xmlns="http://www.w3.org/2000/svg"
 width="300.000000pt" height="300.000000pt" viewBox="0 0 300.000000 300.000000"
 preserveAspectRatio="xMidYMid meet">
<metadata>
Created by potrace 1.11, written by Peter Selinger 2001-2013
</metadata>
<g transform="translate(0.000000,300.000000) scale(0.100000,-0.100000)"
fill="#000000" stroke="none">
<path d="M90 2982 c-19 -9 -45 -32 -57 -51 l-23 -34 0 -1404 0 -1404 39 -42
40 -42 1406 -3 1407 -2 34 21 c69 42 64 -68 64 1483 l0 1404 -27 33 c-53 63
37 59 -1470 59 -1292 0 -1380 -1 -1413 -18z m2260 -635 c0 -2 -10 -12 -22 -23
l-23 -19 19 23 c18 21 26 27 26 19z m-79 -86 c-32 -44 -57 -127 -76 -243 -45
-284 -75 -392 -141 -518 -78 -149 -222 -297 -409 -422 -179 -119 -494 -257
-785 -343 -86 -25 -134 -45 -154 -63 -21 -19 -27 -22 -23 -9 5 13 1 17 -15 17
-21 0 -21 2 -15 148 11 242 50 425 127 589 49 104 88 161 169 247 172 179 327
259 780 401 262 82 400 137 496 195 33 20 62 35 64 34 2 -2 -6 -16 -18 -33z"/>
<path d="M1760 1823 c-167 -17 -334 -86 -479 -198 -88 -67 -230 -222 -299
-325 -107 -160 -294 -564 -278 -604 7 -20 111 100 306 354 372 484 508 619
735 731 57 28 89 48 75 47 -14 0 -41 -3 -60 -5z"/>
</g>
</svg>
